<svg width="64" height="64" viewBox="0 0 64 64" fill="none" xmlns="http://www.w3.org/2000/svg">
<path fill-rule="evenodd" clip-rule="evenodd" d="
M8 8
C 8 4, 12 4, 14 6
C 16 8, 18 8, 20 6
C 22 4, 42 4, 44 6
C 46 8, 48 8, 50 6
C 52 4, 56 4, 56 8
C 56 12, 54 14, 56 16
C 58 18, 58 46, 56 48
C 54 50, 56 52, 56 56
C 56 60, 52 60, 50 58
C 48 56, 46 56, 44 58
C 42 60, 22 60, 20 58
C 18 56, 16 56, 14 58
C 12 60, 8 60, 8 56
C 8 52, 10 50, 8 48
C 6 46, 6 18, 8 16
C 10 14, 8 12, 8 8
Z
M 14 14 L 50 14 L 50 50 L 14 50 Z
" fill="black"/>
</svg>
